Coordinates
version=1
nRows=24
nColumns=38
inDegrees=no

Units are S.I. units (second, meters, Newtons, ...)
If the header above contains a line with 'inDegrees', this indicates whether rotational values are in degrees (yes) or radians (no).

endheader
time	pelvis_tilt	pelvis_list	pelvis_rotation	pelvis_tx	pelvis_ty	pelvis_tz	hip_flexion_r	hip_adduction_r	hip_rotation_r	knee_angle_r	ankle_angle_r	subtalar_angle_r	mtp_angle_r	hip_flexion_l	hip_adduction_l	hip_rotation_l	knee_angle_l	ankle_angle_l	subtalar_angle_l	mtp_angle_l	lumbar_extension	lumbar_bending	lumbar_rotation	arm_flex_r	arm_add_r	arm_rot_r	elbow_flex_r	pro_sup_r	wrist_flex_r	wrist_dev_r	arm_flex_l	arm_add_l	arm_rot_l	elbow_flex_l	pro_sup_l	wrist_flex_l	wrist_dev_l
21.36	0.659469	1.3685	0.92218	0.787152	-0.755892	0.959233	0.200363	0.058058	-0.425669	0.307053	0.156542	0	0	0.136797	-0.205221	-0.149363	0.153758	0.215405	0	0	-0.185554	-0.0134801	0.0934565	0.404367	-0.30454	0.0121803	1.79136	1.5708	0	0	0.565855	-0.0819599	0.0471796	1.72747	1.02223	0	0
21.37	0.706682	1.38241	0.828933	0.795248	-0.756086	0.961673	0.184343	0.0761914	-0.362672	0.303357	0.147581	0	0	0.10141	-0.216108	-0.206545	0.147016	0.212598	0	0	-0.20641	-0.026312	0.136451	0.427015	-0.295171	0.0225221	1.77645	1.5708	0	0	0.583781	-0.090968	0.0455542	1.71673	1.02225	0	0
21.38	0.645984	1.36935	0.930686	0.790107	-0.753645	0.959059	0.19932	0.0589955	-0.420405	0.308008	0.160124	0	0	0.133212	-0.205403	-0.152509	0.15246	0.213635	0	0	-0.180033	-0.00854278	0.0918526	0.434123	-0.297378	0.0370137	1.76391	1.5708	0	0	0.575679	-0.0873666	0.0341084	1.70197	1.02059	0	0
21.39	0.695611	1.38343	0.83716	0.797999	-0.754009	0.961471	0.183161	0.0766986	-0.359935	0.304934	0.151284	0	0	0.0992941	-0.216554	-0.20638	0.147904	0.210989	0	0	-0.202212	-0.0203824	0.133342	0.456461	-0.286919	0.0449765	1.75039	1.5708	0	0	0.593774	-0.0970391	0.0332201	1.69213	1.02006	0	0
21.4	0.633737	1.36992	0.940177	0.792832	-0.751527	0.9588	0.199008	0.0590851	-0.418491	0.310484	0.164092	0	0	0.133265	-0.206278	-0.152619	0.156626	0.213752	0	0	-0.174986	-0.00284323	0.0894735	0.462353	-0.287809	0.0572652	1.73808	1.5708	0	0	0.586039	-0.0933551	0.0229448	1.67638	1.01721	0	0
21.41	0.626935	1.37038	0.945091	0.794199	-0.750395	0.958694	0.198846	0.058805	-0.417231	0.311943	0.165745	0	0	0.134276	-0.206702	-0.153568	0.161039	0.214587	0	0	-0.172516	-0.000384807	0.0895953	0.474858	-0.282206	0.0658129	1.72494	1.5708	0	0	0.591276	-0.0961011	0.0177046	1.66389	1.01704	0	0
21.42	0.621217	1.37107	0.948821	0.795531	-0.749249	0.958642	0.198525	0.0585026	-0.415791	0.313913	0.167367	0	0	0.135603	-0.207317	-0.154954	0.166836	0.21549	0	0	-0.17033	0.00215567	0.0901875	0.486534	-0.276525	0.0743798	1.71104	1.5708	0	0	0.596623	-0.0991307	0.0129052	1.65056	1.01679	0	0
21.43	0.616822	1.37196	0.951218	0.796838	-0.748107	0.958642	0.197749	0.0584714	-0.41377	0.315372	0.169001	0	0	0.137379	-0.208151	-0.156462	0.174313	0.216337	0	0	-0.168654	0.00486635	0.091083	0.497768	-0.270417	0.0831871	1.6974	1.5708	0	0	0.602248	-0.102133	0.0081532	1.63669	1.0163	0	0
21.44	0.612949	1.37331	0.953447	0.798077	-0.74696	0.958698	0.196388	0.0583375	-0.411452	0.316603	0.17058	0	0	0.139407	-0.208609	-0.156974	0.182776	0.216617	0	0	-0.167727	0.00748273	0.0916897	0.508621	-0.263779	0.0916249	1.68421	1.5708	0	0	0.608354	-0.10522	0.00339134	1.62225	1.0156	0	0
21.45	0.609109	1.37505	0.955487	0.799286	-0.745766	0.958786	0.194513	0.0580735	-0.408934	0.317646	0.172015	0	0	0.141214	-0.20876	-0.156877	0.191626	0.216583	0	0	-0.16731	0.00985501	0.0924535	0.518905	-0.256851	0.0993138	1.67176	1.5708	0	0	0.614822	-0.108489	-0.00111525	1.60725	1.01483	0	0
21.46	0.604373	1.37709	0.95815	0.800446	-0.744525	0.9589	0.192244	0.0575759	-0.406126	0.318285	0.1733	0	0	0.143498	-0.208579	-0.157438	0.201891	0.216637	0	0	-0.16725	0.0119453	0.0935478	0.528601	-0.249425	0.10578	1.66047	1.5708	0	0	0.621396	-0.112061	-0.00498762	1.5921	1.01391	0	0
21.47	0.660082	1.35737	0.894476	0.801045	-0.747022	0.961964	0.213322	0.0649999	-0.476497	0.339335	0.160257	0	0	0.161156	-0.238085	-0.19377	0.209204	0.207389	0	0	-0.169573	0.0423192	0.103729	0.548941	-0.246772	0.116729	1.64639	1.5708	0	0	0.62876	-0.107085	-0.018955	1.5725	1.0133	0	0
21.48	0.593701	1.38241	0.963725	0.802705	-0.74201	0.959291	0.186308	0.055774	-0.400326	0.318591	0.175455	0	0	0.149348	-0.207576	-0.162944	0.227964	0.218831	0	0	-0.168323	0.0149555	0.0975237	0.546772	-0.234064	0.11672	1.63931	1.5708	0	0	0.63546	-0.12042	-0.00904902	1.5601	1.00763	0	0
21.49	0.591105	1.3855	0.965179	0.803678	-0.74081	0.959554	0.182573	0.0548248	-0.398795	0.318467	0.176194	0	0	0.152908	-0.206608	-0.161952	0.242589	0.220446	0	0	-0.170061	0.0165702	0.0985395	0.555735	-0.226559	0.12105	1.62939	1.5708	0	0	0.642794	-0.125013	-0.00980406	1.54582	1.00649	0	0
21.5	0.589295	1.38857	0.965194	0.804712	-0.739555	0.959837	0.178743	0.0542174	-0.396358	0.318334	0.17678	0	0	0.156533	-0.20559	-0.160511	0.257836	0.22268	0	0	-0.171802	0.0181054	0.10051	0.564184	-0.218468	0.124126	1.61868	1.5708	0	0	0.650603	-0.129855	-0.00909441	1.53033	1.00496	0	0
21.51	0.587742	1.39167	0.964504	0.805742	-0.738268	0.960154	0.174884	0.0534725	-0.393556	0.318436	0.177478	0	0	0.160275	-0.204557	-0.159779	0.273429	0.224465	0	0	-0.173554	0.0194929	0.103118	0.572016	-0.210687	0.12666	1.6077	1.5708	0	0	0.658779	-0.13455	-0.00739222	1.51399	1.00328	0	0
21.52	0.584429	1.39462	0.965751	0.806685	-0.73695	0.96048	0.171438	0.0521832	-0.391596	0.318947	0.178074	0	0	0.16463	-0.203414	-0.16077	0.289246	0.225469	0	0	-0.175014	0.0206876	0.105485	0.579599	-0.203502	0.129619	1.59651	1.5708	0	0	0.666846	-0.139208	-0.00521446	1.49746	1.00152	0	0
21.53	0.578415	1.39713	0.969946	0.80755	-0.735637	0.960802	0.168812	0.0504954	-0.390307	0.31985	0.178395	0	0	0.170111	-0.202087	-0.162914	0.305223	0.226033	0	0	-0.176072	0.0217445	0.107504	0.58679	-0.196913	0.132412	1.58581	1.5708	0	0	0.67462	-0.143933	-0.00280305	1.48166	0.999416	0	0
21.54	0.572008	1.39989	0.974326	0.808406	-0.734254	0.961139	0.165912	0.0489604	-0.386891	0.320591	0.178679	0	0	0.175086	-0.200318	-0.16455	0.320227	0.225743	0	0	-0.177366	0.0223758	0.109696	0.593895	-0.190796	0.13547	1.57512	1.5708	0	0	0.682638	-0.148129	-0.00013796	1.46577	0.997104	0	0
21.55	0.509318	1.40507	1.03416	0.80957	-0.732569	0.960353	0.166498	0.0333587	-0.392814	0.326447	0.189083	0	0	0.181663	-0.187812	-0.162058	0.33329	0.22567	0	0	-0.173368	0.0113825	0.11073	0.598708	-0.183178	0.136542	1.5656	1.5708	0	0	0.691781	-0.154904	0.00656708	1.45068	0.994029	0	0
21.56	0.563285	1.40523	0.977495	0.810222	-0.731286	0.961775	0.159782	0.0468074	-0.379802	0.32229	0.179927	0	0	0.182242	-0.195078	-0.155683	0.34429	0.22355	0	0	-0.180239	0.0234052	0.115528	0.607903	-0.180666	0.141472	1.55564	1.5708	0	0	0.698611	-0.155809	0.0066983	1.43449	0.99136	0	0
21.57	0.559102	1.40747	0.979303	0.810972	-0.72983	0.962105	0.156563	0.0461228	-0.376203	0.321717	0.179487	0	0	0.186776	-0.192689	-0.153266	0.355736	0.224356	0	0	-0.181652	0.0241547	0.118045	0.615468	-0.177577	0.145891	1.5467	1.5708	0	0	0.70611	-0.158551	0.00897265	1.41983	0.989183	0	0
21.58	0.548797	1.4095	0.987313	0.811659	-0.728402	0.962371	0.154566	0.0442959	-0.373474	0.322289	0.180018	0	0	0.191992	-0.189491	-0.151833	0.365826	0.225617	0	0	-0.18247	0.0239641	0.120423	0.623242	-0.174773	0.149927	1.53782	1.5708	0	0	0.713824	-0.160783	0.0116333	1.40485	0.986633	0	0
21.59	0.536637	1.41125	0.997347	0.812301	-0.726966	0.962603	0.152863	0.0422901	-0.371007	0.322743	0.180779	0	0	0.197456	-0.186086	-0.150626	0.374361	0.225802	0	0	-0.182846	0.0235802	0.122292	0.631125	-0.172464	0.154373	1.52867	1.5708	0	0	0.721188	-0.162575	0.013651	1.38982	0.984325	0	0
